<?xml version="1.0" encoding="UTF-8"?>
<svg xmlns="http://www.w3.org/2000/svg" viewBox="0 0 1920 1920">
  <defs>
    <style>
      .cls-1 {
        fill: none;
      }
      .cls-2 {
        fill: #fff;
      }
      @keyframes animate-top-outer {
        0%      { transform: rotate(0deg); }
        35%     { transform: rotate(360deg); }
        60%     { transform: rotate(360deg); }
        75%     { transform: rotate(720deg); }
        100%    { transform: rotate(720deg); }
      }
      @keyframes animate-top-inner {
        0%      { transform: rotate(0deg); }
        35%     { transform: rotate(-360deg); }
        60%     { transform: rotate(-360deg); }
        75%     { transform: rotate(-720deg); }
        100%    { transform: rotate(-720deg); }
      }
      @keyframes animate-bl-outer {
        0%      { transform: rotate(0deg); }
        35%     { transform: rotate(-360deg); }
        40%     { transform: rotate(-360deg); }
        55%     { transform: rotate(-720deg); }
        100%    { transform: rotate(-720deg); }
      }
      @keyframes animate-bl-inner {
        0%      { transform: rotate(0deg); }
        35%     { transform: rotate(360deg); }
        40%     { transform: rotate(360deg); }
        55%     { transform: rotate(720deg); }
        100%    { transform: rotate(720deg); }
      }
      @keyframes animate-br-outer {
        0%      { transform: rotate(0deg); }
        35%     { transform: rotate(360deg); }
        80%     { transform: rotate(360deg); }
        95%     { transform: rotate(720deg); }
        100%    { transform: rotate(720deg); }
      }
      @keyframes animate-br-inner {
        0%      { transform: rotate(0deg); }
        35%     { transform: rotate(-360deg); }
        80%     { transform: rotate(-360deg); }
        95%     { transform: rotate(-720deg); }
        100%    { transform: rotate(-720deg); }
      }

      #top-arc-outer { animation: animate-top-outer 10s linear infinite; }
      #top-arc-inner { animation: animate-top-inner 10s linear infinite; }
      #bottom-left-arc-outer { animation: animate-bl-outer 10s linear infinite; }
      #bottom-left-arc-inner { animation: animate-bl-inner 10s linear infinite; }
      #bottom-right-arc-outer { animation: animate-br-outer 10s linear infinite; }
      #bottom-right-arc-inner { animation: animate-br-inner 10s linear infinite; }

      #top-arc-outer, #top-arc-inner {
        transform-origin: 1277px 1209px;
      }
      #bottom-left-arc-outer, #bottom-left-arc-inner {
        transform-origin: 643px 1209px;
      }
      #bottom-right-arc-outer, #bottom-right-arc-inner {
        transform-origin: 1277px 1209px;
      }
    </style>
  </defs>
  <g id="Background">
    <rect class="cls-1" width="1920" height="1920"/>
  </g>
  <g id="BETO_W_wrapper" data-name="BETO [W]">
    <g id="top-arc-group" transform="rotate(240.25 , 960, 688.75) translate(-290 -500.25)">
      <path id="top-arc-inner" class="cls-2" d="M1276.71,1378.94c-87.06,0-159.64-65.2-168.83-151.66-.99-9.28,5.73-17.6,15.01-18.59,9.29-1.01,17.6,5.73,18.59,15.01,7.36,69.23,65.49,121.44,135.22,121.44,74.99,0,135.99-61,135.99-135.99s-61.01-135.99-135.99-135.99c-18.77,0-36.94,3.75-54,11.14-8.57,3.71-18.51-.23-22.22-8.79-3.71-8.57.23-18.51,8.79-22.22,21.33-9.24,44.01-13.92,67.43-13.92,93.62,0,169.79,76.16,169.79,169.79s-76.16,169.78-169.79,169.78Z"/>
      <path id="top-arc-outer" class="cls-2" d="M1276.71,1514.18c-144.58,0-270.25-102.73-298.8-244.27-5.54-27.44,12.22-54.18,39.67-59.71,27.41-5.51,54.18,12.22,59.71,39.67,19.05,94.41,102.91,162.94,199.42,162.94,112.18,0,203.44-91.26,203.44-203.44s-91.26-203.44-203.44-203.44c-21.99,0-43.6,3.48-64.23,10.33-26.58,8.82-55.26-5.55-64.09-32.12-8.83-26.57,5.55-55.26,32.12-64.09,30.96-10.29,63.33-15.51,96.21-15.51,168.08,0,304.82,136.74,304.82,304.82s-136.74,304.82-304.82,304.82Z"/>
    </g>
    <g id="bottom-left-arc-group">
      <path id="bottom-left-arc-inner" class="cls-2" d="M643.37,1378.94c-93.62,0-169.78-76.16-169.78-169.78s76.16-169.79,169.78-169.79c23.42,0,46.1,4.68,67.43,13.92,8.56,3.71,12.5,13.66,8.79,22.22-3.71,8.56-13.65,12.5-22.22,8.79-17.06-7.39-35.23-11.14-54-11.14-74.99,0-135.99,61.01-135.99,135.99s61.01,135.99,135.99,135.99c69.73,0,127.87-52.21,135.22-121.44.99-9.28,9.28-16.03,18.59-15.01,9.28.99,16,9.31,15.02,18.59-9.19,86.46-81.77,151.66-168.83,151.66Z"/>
      <path id="bottom-left-arc-outer" class="cls-2" d="M643.37,1514.18c-168.08,0-304.82-136.74-304.82-304.82s136.74-304.82,304.82-304.82c32.88,0,65.25,5.22,96.21,15.51,26.57,8.83,40.95,37.53,32.12,64.09s-37.53,40.96-64.09,32.12c-20.63-6.86-42.24-10.33-64.24-10.33-112.18,0-203.44,91.26-203.44,203.44s91.26,203.44,203.44,203.44c96.51,0,180.37-68.53,199.42-162.94,5.54-27.44,32.27-45.22,59.71-39.67,27.44,5.53,45.21,32.27,39.67,59.71-28.55,141.54-154.22,244.27-298.8,244.27Z"/>
    </g>
    <g id="bottom-right-arc-group">
      <path id="bottom-right-arc-inner" class="cls-2" d="M1276.71,1378.94c-87.06,0-159.64-65.2-168.83-151.66-.99-9.28,5.73-17.6,15.01-18.59,9.29-1.01,17.6,5.73,18.59,15.01,7.36,69.23,65.49,121.44,135.22,121.44,74.99,0,135.99-61,135.99-135.99s-61.01-135.99-135.99-135.99c-18.77,0-36.94,3.75-54,11.14-8.57,3.71-18.51-.23-22.22-8.79-3.71-8.57.23-18.51,8.79-22.22,21.33-9.24,44.01-13.92,67.43-13.92,93.62,0,169.79,76.16,169.79,169.79s-76.16,169.78-169.79,169.78Z"/>
      <path id="bottom-right-arc-outer" class="cls-2" d="M1276.71,1514.18c-144.58,0-270.25-102.73-298.8-244.27-5.54-27.44,12.22-54.18,39.67-59.71,27.41-5.51,54.18,12.22,59.71,39.67,19.05,94.41,102.91,162.94,199.42,162.94,112.18,0,203.44-91.26,203.44-203.44s-91.26-203.44-203.44-203.44c-21.99,0-43.6,3.48-64.23,10.33-26.58,8.82-55.26-5.55-64.09-32.12-8.83-26.57,5.55-55.26,32.12-64.09,30.96-10.29,63.33-15.51,96.21-15.51,168.08,0,304.82,136.74,304.82,304.82s-136.74,304.82-304.82,304.82Z"/>
    </g>
  </g>
</svg>